# xmcd CD database file
#
# Track frame offsets:
#	183
#	9783
#	18783
#	41883
#	51633
#	68058
#	77583
#	88908
#	94908
#	100908
#	107733
#	111933
#	120858
#	129933
#	139683
#	146958
#	160308
#	178308
#	190533
#	201108
#	212733
#	223758
#	236808
#	250533
#	263508
#	278058
#	285333
#	300933
#	311058
#
# Disc length: 4543 seconds
#
# Revision: 0
# Processed by: cddbd v1.5.1PL0 Copyright (c) Steve Scherf et al.
# Submitted via: CDex 1.51
#
DISCID=9711bd1d
DTITLE=Sonoton Authentic Series - SAS 037 - Authentic USA 2
DYEAR=1991
DGENRE=Contentum
TTITLE0=The Afro-American - The Blues - Mississippi blues
TTITLE1=The Afro-American - The Blues - Another man done gone
TTITLE2=The Afro-American - The Blues - Careless love
TTITLE3=The Afro-American - The Blues - John Henry
TTITLE4=The Afro-American - The Blues - Standing at the judgement
TTITLE5=The Afro-American - The Blues - Home on the range
TTITLE6=The Afro-American - The Blues - Old paint
TTITLE7=The Afro-American - The Blues - Chisolm trail
TTITLE8=The Afro-American - The Blues - Oh my darling Clementine
TTITLE9=The Afro-American - The Blues - Old Kentucky home 1
TTITLE10=The Afro-American - The Blues - Camptown races 1
TTITLE11=Transition - From the 19th to the twentieth century - Camptown races 2
TTITLE12=Transition - From the 19th to the twentieth century - Camptown races 3
TTITLE13=Transition - From the 19th to the twentieth century - Old Kentucky home 2
TTITLE14=Transition - From the 19th to the twentieth century - Old Kentucky home 3
TTITLE15=Skiffle - Dixieland - Early jazz - Walking with the king
TTITLE16=Skiffle - Dixieland - Early jazz - Just a closer walk with thee
TTITLE17=Skiffle - Dixieland - Early jazz - When the Saints go marching in 1
TTITLE18=Skiffle - Dixieland - Early jazz - When the Saints go marching in 2
TTITLE19=Skiffle - Dixieland - Early jazz - Gloryland
TTITLE20=Skiffle - Dixieland - Early jazz - Zan's rag
TTITLE21=Gospel Music - Go tell it on the mountain 1
TTITLE22=Gospel Music - Go tell it on the mountain 2
TTITLE23=Gospel Music - Go tell it on the mountain 3
TTITLE24=Gospel Music - Go tell it on the mountain 4
TTITLE25=Gospel Music - Go tell it on the mountain 5
TTITLE26=Gospel Music - Amazing Grace 1
TTITLE27=Gospel Music - Amazing Grace 2
TTITLE28=Gospel Music - Amazing Grace 3
EXTD=YEAR: 1991
EXTT0=
EXTT1=
EXTT2=
EXTT3=
EXTT4=
EXTT5=
EXTT6=
EXTT7=
EXTT8=
EXTT9=
EXTT10=
EXTT11=
EXTT12=
EXTT13=
EXTT14=
EXTT15=
EXTT16=
EXTT17=
EXTT18=
EXTT19=
EXTT20=
EXTT21=
EXTT22=
EXTT23=
EXTT24=
EXTT25=
EXTT26=
EXTT27=
EXTT28=
PLAYORDER=
